<?xml version="1.0" standalone="no"?>
<!DOCTYPE svg PUBLIC "-//W3C//DTD SVG 20010904//EN"
 "http://www.w3.org/TR/2001/REC-SVG-20010904/DTD/svg10.dtd">
<svg version="1.0" xmlns="http://www.w3.org/2000/svg"
 width="512.000000pt" height="512.000000pt" viewBox="0 0 512.000000 512.000000"
 preserveAspectRatio="xMidYMid meet">

<g transform="translate(0.000000,512.000000) scale(0.100000,-0.100000)"
fill="#000000" stroke="none">
<path d="M2110 3698 l0 -203 -72 -40 c-39 -22 -76 -39 -81 -37 -6 2 -84 46
-175 98 -90 53 -167 92 -171 87 -14 -16 -443 -765 -439 -767 2 -1 76 -44 166
-96 89 -51 164 -96 167 -99 2 -4 5 -45 6 -91 l2 -85 -167 -97 c-92 -53 -169
-98 -172 -100 -2 -3 93 -172 211 -377 118 -204 218 -378 222 -386 7 -11 40 4
163 76 213 125 185 118 269 68 l71 -42 0 -197 0 -197 338 -6 c185 -4 388 -7
450 -7 l112 0 0 203 0 202 28 16 c15 8 47 27 72 42 l46 27 173 -101 c96 -55
177 -97 181 -92 23 27 440 764 436 771 -3 5 -80 51 -170 103 l-166 94 0 87 0
86 170 98 c94 54 169 103 168 109 -6 24 -434 757 -444 762 -6 2 -78 -35 -160
-83 -206 -120 -180 -113 -263 -65 l-71 42 0 199 0 200 -450 0 -450 0 0 -202z
m570 -715 c83 -22 146 -61 205 -125 248 -268 101 -689 -262 -750 -195 -32
-388 73 -475 259 -44 92 -51 217 -19 321 49 161 197 289 360 311 66 9 116 5
191 -16z"/>
</g>
</svg>
